<svg enable-background="new 0 0 80 80" viewBox="0 0 80 80" xmlns="http://www.w3.org/2000/svg"><path d="m13.5 80h53c7.5 0 13.5-6 13.5-13.5v-53c0-7.4-6-13.5-13.5-13.5h-53c-7.4 0-13.5 6.1-13.5 13.5v53c0 7.5 6.1 13.5 13.5 13.5z" fill="#fff"/><g fill="#facd01"><path d="m74 2.2c-2.2-1.4-4.7-2.2-7.5-2.2h-53c-2.7 0-5.3.8-7.4 2.2-1.4.9-2.6 2.1-3.5 3.4-1.6 2.2-2.6 5-2.6 7.9v53c0 2.9 1 5.7 2.6 7.9s3.9 3.9 6.5 4.9c1.4.5 2.9.8 4.4.8h53c1.6 0 3-.3 4.4-.8 2.3-.8 4.4-2.2 5.9-4.1 2-2.3 3.1-5.4 3.1-8.6v-53c0-3.3-1.2-6.3-3.1-8.6-.7-1.2-1.7-2-2.8-2.8zm-50 44.8c-.2 0-1.3-.1-2.1-.9h.7c4.4 0 8 3.6 8 8 0 2.8-1.4 5.3-3.6 6.7-.2.1-.3.2-.5.3 0 0-.1 0-.1.1-.1.1-.3.1-.4.2s-.3.1-.4.2c-.9.4-1.9.6-3 .6-.9 0-1.8-.2-2.6-.4-.1 0-.3-.1-.4-.2-.1 0-.2-.1-.3-.2 0 0 0 0-.1 0-.2-.1-.3-.2-.5-.2-.2-.1-.3-.2-.5-.3-2.2-1.4-3.6-3.9-3.6-6.7 0-3.6 2.3-6.6 5.6-7.6 1.3 2.2 3.8 2.2 3.9 2.2h.2v-1.6zm-3.5 17.2h.2c.6.1 1.2.1 1.8.1.7 0 1.4-.1 2.1-.2.2 0 .3 0 .5-.1.1 0 .3 0 .4-.1.3-.1.6-.1.9-.2.1 0 .2-.1.4-.1-.2.3-.4.6-.6.8-.2.3-.5.5-.8.7s-.6.3-.9.4c-.5.2-1 .3-1.6.3-.8 0-1.5-.2-2.1-.6-.3-.2-.6-.4-.9-.6-.3-.3-.5-.5-.8-.9.2 0 .4.1.6.1.2.3.5.3.8.4zm28.7 6.2-3 1.8c-.5.3-1.1.4-1.6.3s-.8-.4-1.1-.7c-.2-.4-.3-.8-.2-1.3s.5-1 1-1.3l5.3-3.2c-.3.7-.4 1.5-.4 2.3zm10.5-22.4c-.3 0-1.5-.1-2.3-1.1h.8c4.4 0 8 3.6 8 8 0 2.8-1.4 5.3-3.6 6.7-.2.1-.3.2-.5.3 0 0-.1 0-.1.1-.1.1-.3.1-.4.2s-.3.1-.4.2c-.9.4-1.9.6-3 .6-.9 0-1.8-.2-2.6-.4-.1 0-.3-.1-.4-.2-.1 0-.2-.1-.4-.2 0 0 0 0-.1 0-.2-.1-.3-.2-.5-.2-.2-.1-.3-.2-.5-.3-2.2-1.4-3.6-3.9-3.6-6.7 0-3.5 2.3-6.5 5.5-7.6 1.3 2.3 3.9 2.4 4 2.4h.2v-1.6zm-3.6 17h.3c.6.1 1.2.1 1.7.1.7 0 1.4-.1 2.1-.2.1 0 .3 0 .4-.1.2 0 .3 0 .5-.1.3-.1.6-.1.9-.2.1 0 .3-.1.4-.1-.2.3-.4.6-.6.8-.2.3-.5.5-.8.7s-.6.3-.9.4c-.5.2-1 .3-1.6.3-.8 0-1.5-.2-2.2-.6-.3-.2-.6-.4-.9-.6-.3-.3-.5-.5-.8-.9.2 0 .4.1.6.1.3.3.6.3.9.4zm10.7.8 5.5 3.3c.5.3.9.8 1 1.3s0 .9-.2 1.3-.6.6-1 .7c-.5.1-1.1 0-1.6-.3l-3.1-1.9v-2.1c-.2-.7-.3-1.5-.6-2.3zm10.2-52.3v53c0 .6-.1 1.1-.1 1.7-.8 4.8-4.8 8.5-9.7 8.8.2-.5.3-.8.3-.8l.3-3.2 1.5.9c.7.4 1.4.6 2.2.6.3 0 .6 0 .9-.1 1-.2 1.8-.8 2.3-1.6s.7-1.8.4-2.8-.9-2-1.9-2.5l-7.8-4.8c-.2-.1-.4-.2-.6-.3 2.1-1.8 3.4-4.5 3.4-7.5 0-5.5-4.5-10-10-10-.5 0-1 .1-1.5.1 0-.2 0-.4 0-.6v-.2h-1.6v.2c0 .4 0 .7.1 1-4 1.3-6.9 5.1-6.9 9.5 0 3 1.3 5.7 3.4 7.5-.2.1-.3.1-.5.2l-7.8 4.8c-1 .6-1.7 1.6-2 2.6-.2 1-.1 2 .4 2.8s1.3 1.4 2.3 1.7c.3.1.6.1.9.1.8 0 1.5-.2 2.2-.6l1.4-.9v2.8l.1.2s.2.4.5 1h-18.2c.6-.9.8-1.6.8-1.6l.3-3.2 1.5.9c.7.4 1.4.6 2.2.6.3 0 .6 0 .9-.1 1-.2 1.8-.8 2.3-1.6s.7-1.8.4-2.8-.9-2-1.9-2.5l-7.8-4.8c-.2-.1-.4-.2-.6-.3 2.1-1.8 3.4-4.5 3.4-7.5 0-5.5-4.5-10-10-10-.5 0-1 0-1.5.1 0-.3-.1-.5-.1-.8v-.2h-1.6v.2c0 .4 0 .8.1 1.2-4 1.3-6.9 5.1-6.9 9.5 0 3 1.3 5.7 3.4 7.5-.2.1-.3.1-.5.2l-7.8 4.8c-.9.6-1.6 1.5-1.9 2.5-.2 1-.1 2 .4 2.8s1.3 1.4 2.3 1.7c.3.1.6.1.9.1.8 0 1.5-.2 2.2-.6l1.4-.9v2.8l.1.2s.3.8 1 1.8h-.5c-5.8-.1-10.5-4.8-10.5-10.6v-53c0-5.8 4.7-10.5 10.5-10.5h53c5.2 0 9.5 3.8 10.4 8.8.1.6.1 1.1.1 1.7zm-45.9 51.5 5.5 3.3c.5.3.9.8 1 1.3s0 .9-.2 1.3-.6.6-1 .7c-.5.1-1.1 0-1.6-.3l-3.1-1.9v-2.1c-.1-.7-.3-1.5-.6-2.3zm-17.1.1c-.3.7-.4 1.5-.4 2.3v2.1l-3 1.8c-.5.3-1.1.4-1.6.3-.4-.1-.8-.4-1-.7-.2-.4-.3-.8-.2-1.3s.5-1 1-1.3z"/><path d="m19 54.5c-.5 0-.8.4-.8.9s.4.9.8.9c.5 0 .9-.4.9-.9s-.5-.9-.9-.9z"/><path d="m26.4 56.2c.5 0 .9-.4.9-.9s-.4-.9-.9-.9-.9.4-.9.9.4.9.9.9z"/><path d="m54.7 55.3c-.5 0-.8.4-.8.9s.4.9.8.9c.5 0 .9-.4.9-.9-.1-.6-.5-.9-.9-.9z"/><path d="m62.1 57c.5 0 .9-.4.9-.9s-.4-.9-.9-.9-.9.4-.9.9.4.9.9.9z"/><path d="m44.3 15c-2.6-2.9-7-4.8-12-4.8-8 0-14.4 4.8-14.4 10.7 0 3.5 2 6.3 6.4 8.9 0 0-.4 3.7-1.4 6.3 0 0-.1.7 1 .3 1.1-.3 5.1-1.8 7.8-4.9.1-.1.4 0 .6 0h.9c-.7-1.3-1-2.7-1-4.1.1-6.4 4.8-11 12.1-12.4z"/><path d="m48.1 15.9c-.4 0-.8 0-1.2 0v.1c-.6 0-1.1.1-1.7.2-7.1 1.1-11.6 5.3-11.7 11.1 0 1.3.4 2.7 1.1 4 .1.2.3.5.4.7l-.1.1c2.6 3.2 7.5 5.3 13 5.3.2 0 .5-.2.6 0 2.9 3.1 7.1 4.6 8.2 4.9 1.4.4 1.3-.3 1.3-.3-1.1-2.7-1.5-6.4-1.5-6.4 4.6-2.6 6.7-5.4 6.7-8.9.1-6-6.7-10.8-15.1-10.8z"/></g></svg>