<svg enable-background="new 0 0 80 80" viewBox="0 0 80 80" xmlns="http://www.w3.org/2000/svg"><path d="m13.5 80h53c7.5 0 13.5-6 13.5-13.5v-53c0-7.4-6-13.5-13.5-13.5h-53c-7.4 0-13.5 6.1-13.5 13.5v53c0 7.5 6.1 13.5 13.5 13.5z" fill="#fff"/><g fill="#fd8204"><path d="m27.4 50.8c1 0 2.1-.3 3-.9l4.6-2.8v4.6c0 .5.1 1 .1 1.5-.3 1.2-.2 2.3-.2 2.6l.2 8.3s.1 1.7 1.1 3.5c.9 1.8 2.9 4 7.3 4.1 3.1.1 6 .1 8.3.1 1.2.8 2.8 1.4 5 1.4 3.4.1 6 .1 7.8.1h3c3.6.1 6.6-2.8 6.7-6.4s-2.7-6.6-6.4-6.7h-5.1v-4.6c.8.5 1.6.8 2.5.9h.6c1.1 0 2.2-.4 3.1-1.1 2.2-1.8 2.5-5.2.6-7.5l-8.6-10.8c-.7-.8-1.5-1.4-2.4-1.8-.7-.7-1.5-1.3-2.4-1.9 2.9-2.6 4.8-6.4 4.8-10.7 0-6.6-4.5-12.2-10.7-13.9.3-.8.5-1.8.5-3h-1.8c0 1.1-.2 2-.4 2.8-.6-.1-1.3-.1-2-.1-7.9 0-14.4 6.5-14.4 14.4 0 4.3 1.9 8.2 5 10.9-.2.1-.4.2-.5.3l-11.7 7c-2.6 1.6-3.5 4.9-2 7.3.9 1.6 2.6 2.4 4.4 2.4zm20-40.3c-1.4 1.5-3.3 1.6-3.7 1.6v1.8c.1 0 3.7-.1 5.7-3.1 5.6 1.3 9.6 6.2 9.6 12 0 3.9-1.8 7.4-4.7 9.7-.2.2-.4.3-.6.5s-.5.3-.7.5c-.3.2-.6.3-.9.5-.2.1-.4.2-.7.3-.2.1-.4.2-.6.2-1.3.5-2.7.7-4.2.7-1.1 0-2.1-.1-3-.4-.2-.1-.4-.1-.6-.2s-.5-.2-.7-.2c-.1-.1-.3-.1-.4-.1s-.2-.1-.2-.1c-.2-.1-.3-.2-.5-.2 0 0-.1 0-.1-.1-.2-.1-.4-.2-.5-.3 0 0 0 0-.1 0-.2-.1-.4-.3-.7-.4-3.3-2.2-5.5-6-5.5-10.3 0-6.8 5.6-12.4 12.4-12.4.2-.1.5-.1.7 0zm11.7 60.7c-.2 0-.4 0-.7 0-.5 0-1.1 0-1.6 0-1.4 0-2.5-.3-3.3-.7-.1 0-.1 0-.2-.1-.5-.3-1-.6-1.3-.9-1.4-1.3-1.5-3-1.5-3.3l-.1-2.2c3.4-.3 5.8-1.7 7.5-3.2l.1-.1.8-.8.2-.2c.2-.2.4-.4.5-.6.5-.6.9-1.2 1.2-1.8v2.6.9.5.8h.6.6.6 5.4c2.5.1 4.5 2.2 4.4 4.7s-2.2 4.5-4.7 4.4c0 0-3 .1-8.5 0zm-15.5-34.3c.2 0 .5.1.7.1.1 0 .2 0 .4.1.6.1 1.3.1 1.9.1 1.3 0 2.5-.2 3.7-.5-.7 1.3-2.1 2.3-3.8 2.3-.6 0-1.2-.1-1.8-.4-.1 0-.2-.1-.3-.2-.2-.1-.5-.3-.7-.5-.3-.3-.6-.5-.8-.9-.1-.1-.2-.3-.2-.4h.1c.3.2.5.3.8.3zm24.4 12.2c1.2 1.5 1.1 3.6-.3 4.7-.6.5-1.4.7-2.2.6-.9-.1-1.8-.6-2.5-1.4l-.4-.5-.4-.5-.2-.3-.3-.3-.7-.8-.2-.2-.5-.6-5.9-7.4c-1.2-1.5-1.1-3.6.3-4.7.5-.4 1.2-.6 1.8-.6.8 0 1.6.3 2.3.9.2.2.4.3.5.5l1.2 1.5 1 1.2zm-33-6.4v2.1l-5.6 3.4c-1.6 1-3.7.6-4.7-.9-.9-1.5-.3-3.5 1.4-4.5l11.7-7.2c.1 0 .1-.1.2-.1-1.9 2-3 4.5-3 7.2zm2.1 21.3-.2-6c1.9 2.6 5.5 6 11.5 6.1l.1 2.1s.1 1.6 1 3.2c-1.9 0-4-.1-6.2-.2-5.9-.3-6.2-4.7-6.2-5.2z"/><path d="m12.3 74.3h4c2.3 0 4.1-1.9 4.1-4.1v-4c0-2.3-1.9-4.1-4.1-4.1h-4c-2.3 0-4.1 1.9-4.1 4.1v4c-.1 2.3 1.8 4.1 4.1 4.1zm0-10.2h4c1.2 0 2.1 1 2.1 2.1v4c0 1.2-1 2.1-2.1 2.1h-4c-1.2 0-2.1-1-2.1-2.1v-4c-.1-1.2.9-2.1 2.1-2.1z"/><path d="m14.3 60.1 5.7 1.6c.4.1.7.2 1.1.2.7 0 1.4-.2 1.8-.7.7-.7 1-1.7.7-2.9l-1.6-7.4c-.3-1.2-.9-2-1.8-2.2s-1.9.2-2.7 1.1l-4.7 5.4c-.8.9-1 1.9-.8 2.9.4.9 1.2 1.6 2.3 2zm7.2-.4c-.2.2-.5.2-1 .1l-5.7-1.6c-.5-.1-.8-.4-.8-.6-.1-.3.1-.6.4-1l4.7-5.4c.3-.4.6-.5.6-.5s.2.2.3.7l1.6 7.4c.2.4.1.7-.1.9z"/><path d="m52 26c.8 0 1.4-.6 1.4-1.4s-.6-1.4-1.4-1.4-1.4.6-1.4 1.4.6 1.4 1.4 1.4z"/><path d="m41 26c.8 0 1.4-.6 1.4-1.4s-.6-1.4-1.4-1.4-1.4.6-1.4 1.4c-.1.8.6 1.4 1.4 1.4z"/><path d="m13.5 80h53c7.5 0 13.5-6 13.5-13.5v-53c0-7.4-6-13.5-13.5-13.5h-53c-7.4 0-13.5 6.1-13.5 13.5v53c0 7.5 6.1 13.5 13.5 13.5zm-10.5-66.5c0-5.8 4.7-10.5 10.5-10.5h53c5.8 0 10.5 4.7 10.5 10.5v53c0 5.8-4.7 10.5-10.5 10.5h-53c-5.8 0-10.5-4.7-10.5-10.5z"/></g></svg>