<svg enable-background="new 0 0 80 80" viewBox="0 0 80 80" xmlns="http://www.w3.org/2000/svg"><path d="m13.5 80h53c7.5 0 13.5-6 13.5-13.5v-53c0-7.4-6-13.5-13.5-13.5h-53c-7.4 0-13.5 6.1-13.5 13.5v53c0 7.5 6.1 13.5 13.5 13.5z" fill="#fff"/><g fill="#77d0ec"><path d="m49.2 31.5s2 2.1 5.3 1.7h.2c1-.1 2-.4 3-.8 2.8-1.3 5.3-4 6.3-6.8 1.8-4.8-.7-10.2-5.6-12-4.8-1.8-10.2.7-12 5.6-1.4 3.7-.5 9.4 2.8 12.3zm-1.1-11.7c1.1-3 3.9-5 7.1-5 .9 0 1.7.2 2.6.5 3.9 1.4 5.9 5.8 4.5 9.7-.9 2.4-3 4.6-5.4 5.7-.5.2-1.2.5-2 .6l1.1-3.1c.2-.4-.1-.9-.6-1.1s-1 0-1.2.4l-1.4 3.8c-.3 0-.5-.1-.8-.2l-.1-.1c-.1 0-.1-.1-.2-.1l1.4-3.8c.2-.4-.1-.9-.6-1.1s-1 0-1.2.4l-1.2 3.3c-2.3-2.1-3.2-6.6-2-9.9z"/><path d="m54.1 34.3-3.6-1.3-1.5-.5c-.5-.2-1.2.6-1.6 1.7s-.3 2.1.2 2.3l5.1 1.8c.5.2 1.2-.6 1.6-1.7.3-1.1.2-2.1-.2-2.3z"/><path d="m61.9 12.3c.7-1.6 1.4-3.2 2.1-4.7.6-1.4-1.5-2.4-2.2-1-.7 1.6-1.4 3.2-2.1 4.7-.6 1.3 1.6 2.4 2.2 1z"/><path d="m66.7 17.2c1.4-1.1 2.7-2.1 4.1-3.2 1.2-.9-.2-2.9-1.4-2-1.4 1.1-2.7 2.1-4.1 3.2-1.2.9.2 2.9 1.4 2z"/><path d="m67.4 24.1c1.7.1 3.5.2 5.2.3 1.5.1 2-2.3.4-2.4-1.7-.1-3.5-.2-5.2-.3-1.5 0-1.9 2.3-.4 2.4z"/><path d="m53.7 11.1c-.1-1.7-.3-3.4-.4-5.2-.1-1.5-2.5-1.3-2.4.2.1 1.7.3 3.4.4 5.2.2 1.6 2.6 1.4 2.4-.2z"/><path d="m44.9 15.3c.9 1.2 2.9-.1 1.9-1.4-1-1.4-2-2.8-3.1-4.2-.9-1.2-2.9.1-2 1.4 1.2 1.4 2.2 2.8 3.2 4.2z"/><path d="m21.7 64.3c-1.2 0-2.1.9-2.1 2.1s.9 2.1 2.1 2.1 2.1-.9 2.1-2.1-.9-2.1-2.1-2.1z"/><path d="m41.5 64.3c-1.2 0-2.1.9-2.1 2.1s1 2.1 2.1 2.1c1.2 0 2.1-.9 2.1-2.1s-.9-2.1-2.1-2.1z"/><path d="m13.5 80h.9.7.2.7.8.2.8 27 .8.2.8.7.2.7 18.2c7.6 0 13.6-6 13.6-13.5v-53c0-7.4-6-13.5-13.5-13.5h-53c-7.4 0-13.5 6.1-13.5 13.5v53c0 7.5 6.1 13.5 13.5 13.5zm34.4-3h-33.2c-3.2-3.8-5.1-8.7-5.1-13.9 0-10.6 7.5-19.5 17.9-21.3 2.7 3.9 7.5 4.5 7.5 4.5h.5l.2-2.3h-.5c-.1 0-2.9-.3-5.1-2.5.4 0 .8-.1 1.1-.1 12 0 21.7 9.7 21.7 21.7.1 5.2-1.8 10.1-5 13.9zm-44.9-63.5c0-5.8 4.7-10.5 10.5-10.5h53c5.8 0 10.5 4.7 10.5 10.5v53c0 5.8-4.7 10.5-10.5 10.5h-15.7c2.9-4 4.5-8.9 4.5-13.9 0-13.2-10.8-24-24-24-.9 0-1.7.1-2.6.2-.4-.9-.6-1.9-.7-2.9v-.5l-2.4.1v.5c.1 1.1.3 2.1.7 3.1-11.1 2.3-19 12.1-19 23.5 0 5 1.6 9.8 4.3 13.8-4.8-.9-8.6-5.2-8.6-10.4z"/></g></svg>