<svg enable-background="new 0 0 80 80" viewBox="0 0 80 80" xmlns="http://www.w3.org/2000/svg"><path d="m13.5 80h53c7.5 0 13.5-6 13.5-13.5v-53c0-7.4-6-13.5-13.5-13.5h-53c-7.4 0-13.5 6.1-13.5 13.5v53c0 7.5 6.1 13.5 13.5 13.5z" fill="#fff"/><g fill="#cdde6e"><path d="m59.6 23.6c4.6 0 8.4-3.8 8.4-8.4s-3.8-8.4-8.4-8.4-8.4 3.8-8.4 8.4 3.8 8.4 8.4 8.4zm4.1-10.6c.5 0 .9.4.9.9s-.4.9-.9.9-.9-.4-.9-.9.4-.9.9-.9zm-4.1 5.4c1.1 0 2-.9 2-2h2c0 2.2-1.8 4-4 4s-4-1.8-4-4h2c0 1.1.9 2 2 2zm-4.1-5.4c.5 0 .9.4.9.9s-.4.9-.9.9-.9-.4-.9-.9.4-.9.9-.9z"/><path d="m21.7 64.3c-1.2 0-2.1.9-2.1 2.1s.9 2.1 2.1 2.1 2.1-.9 2.1-2.1-.9-2.1-2.1-2.1z"/><path d="m41.5 64.3c-1.2 0-2.1.9-2.1 2.1s1 2.1 2.1 2.1c1.2 0 2.1-.9 2.1-2.1s-.9-2.1-2.1-2.1z"/><path d="m13.5 80h.9.7.2.7.8.2.8 27 .8.2.8.7.2.7 18.2c7.6 0 13.6-6 13.6-13.5v-53c0-4.3-2.1-8.2-5.3-10.7-2.2-1.7-5.1-2.8-8.2-2.8h-19.6-33.4c-7.4 0-13.5 6.1-13.5 13.5v53c0 7.5 6.1 13.5 13.5 13.5zm34.4-3h-33.2c-3.2-3.8-5.1-8.7-5.1-13.9 0-10.6 7.5-19.5 17.9-21.3 2.7 3.9 7.5 4.5 7.5 4.5h.5l.2-2.3h-.5c-.1 0-2.9-.3-5.1-2.5.4 0 .8-.1 1.1-.1 12 0 21.7 9.7 21.7 21.7.1 5.2-1.8 10.1-5 13.9zm11.7-72.3c5.7 0 10.4 4.7 10.4 10.4s-4.7 10.4-10.4 10.4-10.4-4.7-10.4-10.4 4.7-10.4 10.4-10.4zm-56.6 8.8c0-5.8 4.7-10.5 10.5-10.5h30.6 1.3c-2.3 3.1-3.7 6.9-3.7 11 0 10.2 8.3 18.4 18.5 18.4 7.5 0 14-4.5 16.8-10.9v.8 44.3c0 5.7-4.7 10.4-10.5 10.4h-15.7c2.9-4 4.5-8.9 4.5-13.9 0-8.5-4.5-16.1-11.2-20.3.4-.4.6-.9.6-1.4 0-1.2-.9-2.1-2.1-2.1-1 0-1.9.7-2.1 1.7-2.8-1.2-5.9-1.8-9.2-1.8-.9 0-1.7.1-2.6.2-.4-.9-.6-1.9-.7-2.9v-.5h-2.4v.5c.1 1.1.3 2.1.7 3.1-11.1 2.3-19 12.1-19 23.5 0 5 1.6 9.8 4.3 13.8-4.8-.9-8.6-5.2-8.6-10.4z"/><path d="m47.4 38.2c1.7 0 3-1.3 3-3s-1.3-3-3-3-3 1.3-3 3c0 1.6 1.3 3 3 3z"/></g></svg>