<svg enable-background="new 0 0 80 80" viewBox="0 0 80 80" xmlns="http://www.w3.org/2000/svg"><path d="m13.5 80h53c7.5 0 13.5-6 13.5-13.5v-53c0-7.4-6-13.5-13.5-13.5h-53c-7.4 0-13.5 6.1-13.5 13.5v53c0 7.5 6.1 13.5 13.5 13.5z" fill="#fff"/><g fill="#77d0ec"><path d="m21.6 65.5c-1.2 0-2.1.9-2.1 2.1s.9 2.1 2.1 2.1 2.1-.9 2.1-2.1c0-1.1-1-2.1-2.1-2.1z"/><path d="m41.1 65.5c-1.2 0-2.1.9-2.1 2.1s.9 2.1 2.1 2.1c1.1 0 2.1-.9 2.1-2.1-.1-1.1-1-2.1-2.1-2.1z"/><path d="m13.5 80h53c7.5 0 13.5-6 13.5-13.5v-53c0-7.4-6-13.5-13.5-13.5h-53c-7.4 0-13.5 6.1-13.5 13.5v53c0 7.5 6.1 13.5 13.5 13.5zm.3-3-.1-.1c-.1-.1-.2-.3-.3-.4-.1-.2-.2-.3-.3-.5-2.3-3.5-3.5-7.5-3.5-11.7 0-10.3 7.3-19.1 17.3-21 .1.2.2.3.4.5 2.7 3.2 7.2 3.6 7.3 3.6h.5l.2-2.3h-.5c-.1 0-3-.3-5.1-2.2h1.3c11.8 0 21.4 9.6 21.4 21.4 0 4.2-1.2 8.2-3.5 11.7-.1.2-.2.3-.3.5s-.2.3-.3.5zm-10.8-63.5c0-5.8 4.7-10.5 10.5-10.5h53c5.8 0 10.5 4.7 10.5 10.5v53c0 5.8-4.7 10.5-10.5 10.5h-15.5l.1-.2c.1-.1.1-.2.2-.3.1-.2.2-.3.3-.5 2-3.5 3.1-7.5 3.1-11.7 0-13.1-10.6-23.7-23.7-23.7-.9 0-1.9.1-2.8.2 0-.1-.1-.1-.1-.2-.5-1.1-.6-2.4-.5-3.8v-.5l-2.3-.2v.5c-.1 1.4 0 2.8.4 4l.2.5c-10.7 2.4-18.5 12-18.5 23.1 0 4.1 1.1 8.1 3.1 11.6.1.2.2.3.3.5 0 .1.1.1.1.2-4.6-1-7.9-5.1-7.9-10z"/><path d="m49.1 35.4 6.7-3.4 6.6 3.6-1.1-7.5 5.4-5.1-7.4-1.2-3.3-6.8-3.4 6.7-7.4 1 5.3 5.3z"/><path d="m39.8 32.6h.3l5.2-1.6c.5-.2.8-.7.7-1.3-.2-.5-.7-.8-1.3-.7l-5.2 1.6c-.5.2-.8.7-.7 1.3.2.4.6.7 1 .7z"/><path d="m56 36.2c-.6 0-1 .5-1 1v5.4c0 .6.5 1 1 1 .6 0 1-.5 1-1v-5.4c0-.6-.5-1-1-1z"/><path d="m48.6 17c.2.3.5.5.9.5.2 0 .3 0 .5-.1.5-.3.6-.9.4-1.4l-2.7-4.7c-.3-.5-.9-.6-1.4-.4-.5.3-.6.9-.4 1.4z"/><path d="m65.3 29.7c-.2.5.1 1.1.7 1.3l5.2 1.6h.3c.4 0 .8-.3 1-.7.2-.5-.1-1.1-.7-1.3l-5.3-1.6c-.5-.1-1 .2-1.2.7z"/><path d="m61.3 17.4c.2.1.3.1.5.1.3 0 .7-.2.9-.5l2.7-4.7c.3-.5.1-1.1-.4-1.4s-1.1-.1-1.4.4l-2.7 4.7c-.3.5-.1 1.1.4 1.4z"/></g></svg>